<svg xmlns="http://www.w3.org/2000/svg" aria-hidden="true" style="position:absolute;width:0;height:0;overflow:hidden">
  <defs>
    <symbol id="icon-compass" viewBox="0 0 32 32">
      <path d="M17 32a1 1 0 0 1-1-1V16H1a1 1 0 0 1-.423-1.906l30-14a1 1 0 0 1 1.329 1.329l-14 30A1 1 0 0 1 17 32zM5.508 14H17a1 1 0 0 1 1 1v11.492L28.931 3.069 5.508 14z"/>
    </symbol>
    <symbol id="icon-search" viewBox="0 0 32 32">
      <path d="m31.008 27.231-7.58-6.447c-.784-.705-1.622-1.029-2.299-.998a11.954 11.954 0 0 0 2.87-7.787c0-6.627-5.373-12-12-12s-12 5.373-12 12 5.373 12 12 12c2.972 0 5.691-1.081 7.787-2.87-.031.677.293 1.515.998 2.299l6.447 7.58c1.104 1.226 2.907 1.33 4.007.23s.997-2.903-.23-4.007zM12 20a8 8 0 1 1 0-16 8 8 0 0 1 0 16z"/>
    </symbol>
    <symbol id="icon-github" viewBox="0 0 32 32">
      <path d="M16 .395c-8.836 0-16 7.163-16 16 0 7.069 4.585 13.067 10.942 15.182.8.148 1.094-.347 1.094-.77 0-.381-.015-1.642-.022-2.979-4.452.968-5.391-1.888-5.391-1.888-.728-1.849-1.776-2.341-1.776-2.341-1.452-.993.11-.973.11-.973 1.606.113 2.452 1.649 2.452 1.649 1.427 2.446 3.743 1.739 4.656 1.33.143-1.034.558-1.74 1.016-2.14-3.554-.404-7.29-1.777-7.29-7.907 0-1.747.625-3.174 1.649-4.295-.166-.403-.714-2.03.155-4.234 0 0 1.344-.43 4.401 1.64a15.353 15.353 0 0 1 4.005-.539c1.359.006 2.729.184 4.008.539 3.054-2.07 4.395-1.64 4.395-1.64.871 2.204.323 3.831.157 4.234 1.026 1.12 1.647 2.548 1.647 4.295 0 6.145-3.743 7.498-7.306 7.895.574.497 1.085 1.47 1.085 2.963 0 2.141-.019 3.864-.019 4.391 0 .426.288.925 1.099.768C27.421 29.457 32 23.462 32 16.395c0-8.837-7.164-16-16-16z"/>
    </symbol>
    <symbol id="icon-switch" viewBox="0 0 32 32">
      <path d="M20 4.581v4.249c1.131 0.494 2.172 1.2 3.071 2.099 1.889 1.889 2.929 4.4 2.929 7.071s-1.040 5.182-2.929 7.071c-1.889 1.889-4.4 2.929-7.071 2.929s-5.182-1.040-7.071-2.929c-1.889-1.889-2.929-4.4-2.929-7.071s1.040-5.182 2.929-7.071c0.899-0.899 1.94-1.606 3.071-2.099v-4.249c-5.783 1.721-10 7.077-10 13.419 0 7.732 6.268 14 14 14s14-6.268 14-14c0-6.342-4.217-11.698-10-13.419zM14 0h4v16h-4z"></path>
    </symbol>
    <!-- icon-ColorOn -->
    <symbol id="01d" viewBox="0 0 32 32">
      <path d="M15 5h2V2h-2v3zm5.634.974 1.732 1 1.5-2.598-1.732-1-1.5 2.598zM16 23a7 7 0 1 1 0-14 7 7 0 0 1 0 14zm0 2c4.971 0 9-4.029 9-9s-4.029-9-9-9-9 4.029-9 9 4.029 9 9 9zm11-10v2h3v-2h-3zm.624-6.866 1 1.732-2.598 1.5-1-1.732 2.598-1.5zM8.134 4.376l1.732-1 1.5 2.598-1.732 1-1.5-2.598zm-2.16 6.99 1-1.732-2.598-1.5-1 1.732 2.598 1.5zM15 27h2v3h-2v-3zM5 15v2H2v-2h3zm-1.624 7.134 1 1.732 2.598-1.5-1-1.732-2.598 1.5zm6.258 2.892 1.732 1-1.5 2.598-1.732-1 1.5-2.598zm12.5 3.598 1.732-1-1.5-2.598-1.732 1 1.5 2.598zm2.892-6.258 1-1.732 2.598 1.5-1 1.732-2.598-1.5z"/>
    </symbol>
    <symbol id="01n" viewBox="0 0 32 32">
      <path d="M27.591 19.106c.46-1.718.523-3.448.246-5.094a7.048 7.048 0 0 1-1.89 3.03l-.001.009a7.117 7.117 0 0 1-5.172 2.04 7.1 7.1 0 0 1-6.665-5.22 7.098 7.098 0 0 1 .919-5.793A7.1 7.1 0 0 1 17 6.089a7.11 7.11 0 0 1 3.406-1.252c-.42-.165-.854-.308-1.3-.428-6.402-1.715-12.982 2.084-14.697 8.485s2.084 12.982 8.485 14.697c6.402 1.715 12.982-2.084 14.697-8.485zm-2.545 1.16c-2.021 4.297-6.886 6.665-11.634 5.393-5.335-1.429-8.5-6.913-7.071-12.248a9.998 9.998 0 0 1 7.378-7.15 9.233 9.233 0 0 0 11.328 14.005zm.814-11.652L25.336 7l-.524 1.614h-1.697l1.373.998-.524 1.614 1.373-.998 1.373.998-.524-1.614 1.373-.998h-1.697zM19.336 7l.524 1.614h1.697l-1.373.998.524 1.614-1.373-.998-1.373.998.524-1.614-1.373-.998h1.697L19.334 7zm3.524 5.614L22.336 11l-.524 1.614h-1.697l1.373.998-.524 1.614 1.373-.998 1.373.998-.524-1.614 1.373-.998h-1.697z"/>
    </symbol>
    <symbol id="04n" viewBox="0 0 32 32">
      <path d="M11.532 8.056a5.761 5.761 0 0 1 10.948-.177 5.53 5.53 0 0 1 .243 1.606 3.5 3.5 0 1 1 1.838 6.514l-1.56.001.124.001a6.035 6.035 0 0 0-.303.013C21.567 11.39 17.47 8 12.609 8c-.363 0-.723.019-1.077.056zm15.645 9.25A5.5 5.5 0 0 0 24.29 7.004 7.762 7.762 0 0 0 9.375 8.521C5.098 9.939 2.001 14.095 2.001 19c0 6.075 4.75 11 10.608 11l.159-.001 10.233-.003c.083.003.166.005.249.005 3.728 0 6.751-3.134 6.751-7 0-2.347-1.114-4.424-2.823-5.694zM23 28H12.608C7.922 28 4 24.04 4 19s3.922-9 8.608-9c3.976 0 7.401 2.85 8.349 6.791l.003-.001a9.26 9.26 0 0 1 .251 1.696 4.542 4.542 0 0 1 2.038-.485c2.556 0 4.751 2.17 4.751 5 0 2.811-2.164 4.97-4.697 5H23z"/>
    </symbol>
    <symbol id="04d" viewBox="0 0 32 32">
      <path d="M11.532 8.056a5.761 5.761 0 0 1 10.948-.177 5.53 5.53 0 0 1 .243 1.606 3.5 3.5 0 1 1 1.838 6.514l-1.56.001.124.001a6.035 6.035 0 0 0-.303.013C21.567 11.39 17.47 8 12.609 8c-.363 0-.723.019-1.077.056zm15.645 9.25A5.5 5.5 0 0 0 24.29 7.004 7.762 7.762 0 0 0 9.375 8.521C5.098 9.939 2.001 14.095 2.001 19c0 6.075 4.75 11 10.608 11l.159-.001 10.233-.003c.083.003.166.005.249.005 3.728 0 6.751-3.134 6.751-7 0-2.347-1.114-4.424-2.823-5.694zM23 28H12.608C7.922 28 4 24.04 4 19s3.922-9 8.608-9c3.976 0 7.401 2.85 8.349 6.791l.003-.001a9.26 9.26 0 0 1 .251 1.696 4.542 4.542 0 0 1 2.038-.485c2.556 0 4.751 2.17 4.751 5 0 2.811-2.164 4.97-4.697 5H23z"/>
    </symbol>
    <symbol id="02d" viewBox="0 0 32 32">
      <path d="M15 2v3h2V2h-2zm5.612 19.266a7 7 0 1 0-11.599-4.844 7.51 7.51 0 0 0-1.902.995A9 9 0 0 1 16 6.999a9 9 0 0 1 6.397 15.331 4.988 4.988 0 0 0-1.784-1.065zM27 15h3v2h-3v-2zm.624-6.866-2.598 1.5 1 1.732 2.598-1.5-1-1.732zm-6.99-2.16 1.5-2.598 1.732 1-1.5 2.598-1.732-1zm-12.5-1.598 1.5 2.598 1.732-1-1.5-2.598-1.732 1zm-2.16 6.99-2.598-1.5 1-1.732 2.598 1.5-1 1.732zM5 15H2v2h3v-2zm22.624 8.866-2.598-1.5 1-1.732 2.598 1.5-1 1.732z"/>
      <path d="m11.5 28 .083-.001h7.35a.47.47 0 0 1 .038.001h.028a3 3 0 1 0-2.002-5.234 5.507 5.507 0 0 0-.338-2.186 5 5 0 1 1 2.34 9.42H11.498a7.5 7.5 0 1 1 7.079-9.982 4.97 4.97 0 0 0-1.923.565 5.501 5.501 0 1 0-5.156 7.418z"/>
    </symbol>
    <symbol id="03d" viewBox="0 0 32 32">
      <path d="M17.636 2v2.435h2V2h-2zM30 12.364h-2.435v2H30v-2zm-4.131-4.33 2.109-1.218 1 1.732-2.109 1.218-1-1.732zm-2.417-5.012-1.218 2.109 1.732 1 1.218-2.109-1.732-1zM13.306 6.131l-1.218-2.109 1.732-1 1.217 2.109-1.732 1zm10.848 7.233a5.551 5.551 0 0 1-1.018 3.213 6.123 6.123 0 0 1 2.038.516 7.576 7.576 0 1 0-13.421-7.021h.009c.738 0 1.456.085 2.145.247a5.576 5.576 0 0 1 10.248 3.045z"/>
      <path d="M12.5 28C7.871 28 4 24.093 4 19.125s3.871-8.875 8.5-8.875c3.597 0 6.737 2.36 7.958 5.743l-.002.001c.23.628.392 1.29.478 1.977A4.787 4.787 0 0 1 23 17.5c2.696 0 5 2.284 5 5.25 0 2.965-2.302 5.248-4.996 5.25H12.5zm10.741 1.996C26.995 29.864 30 26.671 30 22.75c0-4.004-3.134-7.25-7-7.25-.198 0-.395.008-.589.025-1.434-4.237-5.33-7.275-9.911-7.275C6.701 8.25 2 13.119 2 19.125S6.701 30 12.5 30l.197-.002V30H23.241v-.004z"/>
      <path d="M17.636 2v2.435h2V2h-2zM30 12.364h-2.435v2H30v-2zm-4.131-4.33 2.109-1.218 1 1.732-2.109 1.218-1-1.732zm-2.417-5.012-1.218 2.109 1.732 1 1.218-2.109-1.732-1zM13.306 6.131l-1.218-2.109 1.732-1 1.217 2.109-1.732 1zm10.848 7.233a5.551 5.551 0 0 1-1.018 3.213 6.123 6.123 0 0 1 2.038.516 7.576 7.576 0 1 0-13.421-7.021h.009c.738 0 1.456.085 2.145.247a5.576 5.576 0 0 1 10.248 3.045z"/>
      <path d="M12.5 28C7.871 28 4 24.093 4 19.125s3.871-8.875 8.5-8.875c3.597 0 6.737 2.36 7.958 5.743l-.002.001c.23.628.392 1.29.478 1.977A4.787 4.787 0 0 1 23 17.5c2.696 0 5 2.284 5 5.25 0 2.965-2.302 5.248-4.996 5.25H12.5zm10.741 1.996C26.995 29.864 30 26.671 30 22.75c0-4.004-3.134-7.25-7-7.25-.198 0-.395.008-.589.025-1.434-4.237-5.33-7.275-9.911-7.275C6.701 8.25 2 13.119 2 19.125S6.701 30 12.5 30l.197-.002V30H23.241v-.004z"/>
    </symbol>
    <symbol id="02n" viewBox="0 0 32 32">
      <path d="M28.111 11.59a5.957 5.957 0 0 1-4.001 1.719c-1.529.05-3.018-.487-4.156-1.499S18.116 9.39 18 7.879a5.835 5.835 0 0 1 1.284-4.113 5.952 5.952 0 0 1 1.826-1.472A11.609 11.609 0 0 0 18.502 2C12.152 2 7.004 7.099 7.004 13.388c0 1.385.25 2.713.707 3.941a6.49 6.49 0 0 1 1.802-.901 9.282 9.282 0 0 1-.509-3.039c0-4.556 3.292-8.377 7.68-9.216a7.804 7.804 0 0 0-.693 3.858c.154 2.024 1.092 3.911 2.618 5.266a8.01 8.01 0 0 0 9.356.916c-.364 4.135-3.446 7.521-7.492 8.363.423.529.713 1.167.818 1.865 5.003-1.234 8.71-5.714 8.71-11.051 0-1.296-.218-2.541-.621-3.701a5.844 5.844 0 0 1-1.268 1.903z"/>
      <path d="M9.503 27.991C6.446 27.991 4 25.541 4 22.56s2.445-5.431 5.503-5.431a5.498 5.498 0 0 1 5.156 3.532l.005-.003a5.385 5.385 0 0 1 .341 2.102 3.002 3.002 0 1 1 2 5.239h-.003v-.008h-.211l-.017-.001h-3.777l.001.001h-.007l-.001-.001H9.503zm7.226 2.002a5.002 5.002 0 1 0-.175-9.974 7.501 7.501 0 0 0-7.052-4.888c-4.144 0-7.503 3.327-7.503 7.431s3.359 7.431 7.503 7.431h.006v.002h7.22z"/>
    </symbol>
    <symbol id="03n" viewBox="0 0 32 32">
      <path d="M27.314 17.354a5.137 5.137 0 0 0-1.83-1.039 6.958 6.958 0 0 0 2.448-4.357 5.615 5.615 0 0 1-.412.167 6.506 6.506 0 0 1-2.573.384l-.018-.001a6.431 6.431 0 0 1-4.153-1.831l-.008-.008a6.173 6.173 0 0 1-1.832-4.109 6.098 6.098 0 0 1 .386-2.414c-2.547.512-4.578 2.327-5.371 4.665a10.803 10.803 0 0 0-2.019-.25c1.087-3.786 4.643-6.562 8.863-6.562.976 0 1.917.149 2.8.424a4.325 4.325 0 0 0-1.969 1.622l-.016-.002a4.176 4.176 0 0 0-.634 2.723 4.212 4.212 0 0 0 1.22 2.506l.008.008a4.391 4.391 0 0 0 2.853 1.256l.018.001a4.423 4.423 0 0 0 2.957-.946l.001.002a4.249 4.249 0 0 0 1.343-1.857 8.81 8.81 0 0 1 .623 3.262c0 2.48-1.026 4.726-2.685 6.354z"/>
      <path d="M12.5 28C7.892 28 4 24.059 4 19s3.892-9 8.5-9c3.586 0 6.739 2.387 7.961 5.831l-.002.001a9.41 9.41 0 0 1 .469 1.984 4.722 4.722 0 0 1 2.073-.483c2.675 0 5 2.299 5 5.333s-2.325 5.333-5 5.333h-10.5zM23 30c3.866 0 7-3.283 7-7.333s-3.134-7.333-7-7.333c-.198 0-.395.009-.589.025C20.977 11.073 17.081 8 12.5 8 6.701 8 2 12.925 2 19s4.701 11 10.5 11H23z"/>
    </symbol>
    <symbol id="50d" viewBox="0 0 32 32">
      <path d="M28 17.108a5.047 5.047 0 0 1-3.5 4.822V24c3.145-.692 5.5-3.515 5.5-6.892 0-3.896-3.134-7.054-7-7.054-.198 0-.395.008-.589.025C20.976 5.957 17.081 3 12.5 3 6.701 3 2 7.737 2 13.581c0 4.417 2.685 8.201 6.5 9.786v-2.213A8.586 8.586 0 0 1 4 13.581C4 8.827 7.82 5 12.5 5c3.623 0 6.731 2.294 7.95 5.537l.008-.003c.231.626.393 1.286.477 1.971a4.93 4.93 0 0 1 2.065-.45c2.747 0 5 2.248 5 5.054zM23 18H13v2h10v-2zm-2 4H11v2h10v-2zm-8 4h10v2H13v-2z"/>
    </symbol>
    <symbol id="50n" viewBox="0 0 32 32">
      <path d="M28 17.108a5.047 5.047 0 0 1-3.5 4.822V24c3.145-.692 5.5-3.515 5.5-6.892 0-3.896-3.134-7.054-7-7.054-.198 0-.395.008-.589.025C20.976 5.957 17.081 3 12.5 3 6.701 3 2 7.737 2 13.581c0 4.417 2.685 8.201 6.5 9.786v-2.213A8.586 8.586 0 0 1 4 13.581C4 8.827 7.82 5 12.5 5c3.623 0 6.731 2.294 7.95 5.537l.008-.003c.231.626.393 1.286.477 1.971a4.93 4.93 0 0 1 2.065-.45c2.747 0 5 2.248 5 5.054zM23 18H13v2h10v-2zm-2 4H11v2h10v-2zm-8 4h10v2H13v-2z"/>
    </symbol>
    <symbol id="09d" viewBox="0 0 32 32">
      <path d="M28 17.108a5.047 5.047 0 0 1-3.5 4.822V24c3.145-.692 5.5-3.515 5.5-6.892 0-3.896-3.134-7.054-7-7.054-.198 0-.395.008-.589.025C20.976 5.957 17.081 3 12.5 3 6.701 3 2 7.737 2 13.581c0 4.417 2.685 8.201 6.5 9.786v-2.213A8.586 8.586 0 0 1 4 13.581C4 8.827 7.82 5 12.5 5c3.623 0 6.731 2.294 7.95 5.537l.008-.003c.231.626.393 1.286.477 1.971a4.93 4.93 0 0 1 2.065-.45c2.747 0 5 2.248 5 5.054zM23 18H13v2h10v-2zm-2 4H11v2h10v-2zm-8 4h10v2H13v-2z"/>
    </symbol>
    <symbol id="09n" viewBox="0 0 32 32">
      <path d="M24 23.957c3.375-.387 6-3.354 6-6.957 0-3.866-3.022-7-6.751-7-.144 0-.287.005-.428.014C21.566 5.39 17.469 2 12.608 2 6.749 2 2 6.925 2 13c0 5.142 3.402 9.46 8 10.665v-2.088C6.553 20.429 4 17.066 4 13c0-5.04 3.922-9 8.608-9 3.976 0 7.401 2.85 8.349 6.791l.003-.001a9.26 9.26 0 0 1 .251 1.696A4.543 4.543 0 0 1 23.249 12C25.805 12 28 14.17 28 17c0 2.549-1.779 4.561-4 4.937v2.02zm-10.498 4.045c.242 0 .5-.21.5-.546 0-.184-.063-.53-.259-1.039a9.016 9.016 0 0 0-.269-.623c-.299.65-.473 1.234-.473 1.662 0 .336.258.546.5.546zm-1.21-4.245C12.903 22.73 13.5 22 13.5 22s.57.755 1.165 1.778c.652 1.12 1.336 2.56 1.337 3.678 0 1.406-1.119 2.546-2.499 2.546s-2.501-1.14-2.501-2.546c0-1.227.652-2.625 1.291-3.699zm7.71.699c0 .336-.258.546-.5.546s-.5-.21-.5-.546c0-.428.174-1.012.473-1.662.1.211.191.42.269.623.195.509.259.855.259 1.039zM19.5 19s-.597.73-1.208 1.757c-.638 1.074-1.291 2.472-1.291 3.699 0 1.406 1.12 2.546 2.501 2.546s2.5-1.14 2.499-2.546c0-1.118-.684-2.558-1.337-3.678C20.068 19.756 19.499 19 19.499 19z"/>
    </symbol>
    <symbol id="10d" viewBox="0 0 32 32">
      <path d="M27.069 12.173a5.202 5.202 0 0 0-7.7-6.882 10.007 10.007 0 0 0-1.705-1.138 7.201 7.201 0 0 1 10.606 9.732 7.012 7.012 0 0 0-1.201-1.712z"/>
      <path d="M24 23.957c3.375-.387 6-3.354 6-6.957 0-3.866-3.022-7-6.751-7-.144 0-.287.005-.428.014C21.566 5.39 17.469 2 12.608 2 6.749 2 2 6.925 2 13c0 5.142 3.402 9.46 8 10.665v-2.088C6.553 20.429 4 17.066 4 13c0-5.04 3.922-9 8.608-9 3.976 0 7.401 2.85 8.349 6.791l.003-.001a9.26 9.26 0 0 1 .251 1.696A4.543 4.543 0 0 1 23.249 12C25.805 12 28 14.17 28 17c0 2.549-1.779 4.561-4 4.937v2.02zm-10.498 4.045c.242 0 .5-.21.5-.546 0-.184-.063-.53-.259-1.039a9.016 9.016 0 0 0-.269-.623c-.299.65-.473 1.234-.473 1.662 0 .336.258.546.5.546zm-1.21-4.245C12.903 22.73 13.5 22 13.5 22s.57.755 1.165 1.778c.652 1.12 1.336 2.56 1.337 3.678 0 1.406-1.119 2.546-2.499 2.546s-2.501-1.14-2.501-2.546c0-1.227.652-2.625 1.291-3.699zm7.71.699c0 .336-.258.546-.5.546s-.5-.21-.5-.546c0-.428.174-1.012.473-1.662.1.211.191.42.269.623.195.509.259.855.259 1.039zM19.5 19s-.597.73-1.208 1.757c-.638 1.074-1.291 2.472-1.291 3.699 0 1.406 1.12 2.546 2.501 2.546s2.5-1.14 2.499-2.546c0-1.118-.684-2.558-1.337-3.678C20.068 19.756 19.499 19 19.499 19z"/>
    </symbol>
    <symbol id="10n" viewBox="0 0 32 32">
      <path d="M29.817 8.767c.213-.797.236-1.6.096-2.361a2.813 2.813 0 0 1-4.423.991 2.154 2.154 0 0 1-.802-1.169l-.008-.031a2.812 2.812 0 0 1 2.208-3.699 5.372 5.372 0 0 0-7.285 2.986c.626.551 1.183 1.18 1.656 1.871.002-.282.04-.567.116-.852a3.36 3.36 0 0 1 1.322-1.89 4.21 4.21 0 0 0 .842 3.736 4.214 4.214 0 0 0 3.369 1.517 3.367 3.367 0 0 1-4.352.171c.098.316.18.638.247.966a5.97 5.97 0 0 1 3.948 1.313 5.364 5.364 0 0 0 3.069-3.548z"/>
      <path d="M24 23.957c3.375-.387 6-3.354 6-6.957 0-3.866-3.022-7-6.751-7-.144 0-.287.005-.428.014C21.566 5.39 17.469 2 12.608 2 6.749 2 2 6.925 2 13c0 5.142 3.402 9.46 8 10.665v-2.088C6.553 20.429 4 17.066 4 13c0-5.04 3.922-9 8.608-9 3.976 0 7.401 2.85 8.349 6.791l.003-.001a9.26 9.26 0 0 1 .251 1.696A4.543 4.543 0 0 1 23.249 12C25.805 12 28 14.17 28 17c0 2.549-1.779 4.561-4 4.937v2.02zm-10.498 4.045c.242 0 .5-.21.5-.546 0-.184-.063-.53-.259-1.039a9.016 9.016 0 0 0-.269-.623c-.299.65-.473 1.234-.473 1.662 0 .336.258.546.5.546zm-1.21-4.245C12.903 22.73 13.5 22 13.5 22s.57.755 1.165 1.778c.652 1.12 1.336 2.56 1.337 3.678 0 1.406-1.119 2.546-2.499 2.546s-2.501-1.14-2.501-2.546c0-1.227.652-2.625 1.291-3.699zm7.71.699c0 .336-.258.546-.5.546s-.5-.21-.5-.546c0-.428.174-1.012.473-1.662.1.211.191.42.269.623.195.509.259.855.259 1.039zM19.5 19s-.597.73-1.208 1.757c-.638 1.074-1.291 2.472-1.291 3.699 0 1.406 1.12 2.546 2.501 2.546s2.5-1.14 2.499-2.546c0-1.118-.684-2.558-1.337-3.678C20.068 19.756 19.499 19 19.499 19z"/>
    </symbol>
    <symbol id="11d" viewBox="0 0 32 32">
      <path d="m17.168 16.445 1.664 1.109-2.964 4.445h5.087l-5.478 7.585-1.621-1.171 3.188-4.415h-4.913l5.037-7.555z"/>
      <path d="M10 23.665C5.402 22.46 2 18.142 2 13 2 6.925 6.75 2 12.608 2c4.861 0 8.958 3.39 10.213 8.014.142-.009.284-.014.428-.014C26.977 10 30 13.134 30 17s-3.022 7-6.751 7c-.084 0-.167-.002-.249-.005V22h.303C25.836 21.97 28 19.811 28 17c0-2.83-2.195-5-4.751-5a4.53 4.53 0 0 0-2.038.486 9.26 9.26 0 0 0-.251-1.696l-.003.001C20.009 6.85 16.584 4 12.608 4 7.922 4 4 7.96 4 13c0 4.066 2.553 7.429 6 8.577v2.088z"/>
    </symbol>
    <symbol id="11n" viewBox="0 0 32 32">
      <path d="m17.168 16.445 1.664 1.109-2.964 4.445h5.087l-5.478 7.585-1.621-1.171 3.188-4.415h-4.913l5.037-7.555z"/>
      <path d="M10 23.665C5.402 22.46 2 18.142 2 13 2 6.925 6.75 2 12.608 2c4.861 0 8.958 3.39 10.213 8.014.142-.009.284-.014.428-.014C26.977 10 30 13.134 30 17s-3.022 7-6.751 7c-.084 0-.167-.002-.249-.005V22h.303C25.836 21.97 28 19.811 28 17c0-2.83-2.195-5-4.751-5a4.53 4.53 0 0 0-2.038.486 9.26 9.26 0 0 0-.251-1.696l-.003.001C20.009 6.85 16.584 4 12.608 4 7.922 4 4 7.96 4 13c0 4.066 2.553 7.429 6 8.577v2.088z"/>
    </symbol>
    <symbol id="13n" viewBox="0 0 32 32">
      <path d="m13.994 16.001-5.113 2.991-4.053-1.861-.832 1.83 2.766 1.27-1.522.89.99 1.738 1.521-.89-.298 3.061 1.981.185.436-4.486 5.116-2.992v6.015l-3.62 2.627 1.175 1.619 2.445-1.775v1.776h2v-1.776l2.445 1.775 1.175-1.619-3.62-2.627v-6.001l5.127 2.999.436 4.486 1.981-.185-.298-3.062 1.522.89.99-1.738-1.521-.89 2.766-1.27-.832-1.83-4.053 1.86-5.149-3.012 5.133-3.002 4.08 1.873.832-1.83-2.793-1.282 1.539-.9-.99-1.738-1.51.883.295-3.032-1.981-.185-.433 4.457-5.141 3.007V8.267l3.643-2.644-1.175-1.619-2.469 1.792V4h-2v1.762l-2.422-1.758-1.175 1.619 3.597 2.61v6.031l-5.1-2.983-.439-4.515-1.981.185.3 3.091-1.539-.9-.99 1.738 1.51.883-2.74 1.258.832 1.83 4.027-1.848 5.127 2.999z"/>
    </symbol>
    <symbol id="13d" viewBox="0 0 32 32">
      <path d="m13.994 16.001-5.113 2.991-4.053-1.861-.832 1.83 2.766 1.27-1.522.89.99 1.738 1.521-.89-.298 3.061 1.981.185.436-4.486 5.116-2.992v6.015l-3.62 2.627 1.175 1.619 2.445-1.775v1.776h2v-1.776l2.445 1.775 1.175-1.619-3.62-2.627v-6.001l5.127 2.999.436 4.486 1.981-.185-.298-3.062 1.522.89.99-1.738-1.521-.89 2.766-1.27-.832-1.83-4.053 1.86-5.149-3.012 5.133-3.002 4.08 1.873.832-1.83-2.793-1.282 1.539-.9-.99-1.738-1.51.883.295-3.032-1.981-.185-.433 4.457-5.141 3.007V8.267l3.643-2.644-1.175-1.619-2.469 1.792V4h-2v1.762l-2.422-1.758-1.175 1.619 3.597 2.61v6.031l-5.1-2.983-.439-4.515-1.981.185.3 3.091-1.539-.9-.99 1.738 1.51.883-2.74 1.258.832 1.83 4.027-1.848 5.127 2.999z"/>
    </symbol>
  </defs>
</svg>